PathFileType	4	(X/Y/Z)	4_coords_data.trc
DataRate	CameraRate	NumFrames	NumMarkers	Units	OrigDataRate	OrigDataStartFrame	OrigNumFrames
30.0	30.0	5	21	m	30.0	11	51
Frame#	Time	THUMB_TIP	THUMB_IP	THUMB_MCP	THUMB_CMC	INDEX_TIP	INDEX_DIP	INDEX_PIP	INDEX_MCP	MIDDLE_TIP	MIDDLE_DIP	MIDDLE_PIP	MIDDLE_MCP	RING_TIP	RING_DIP	RING_PIP	RING_MCP	PINKY_TIP	PINKY_DIP	PINKY_PIP	PINKY_MCP	WRIST
X1	Y1	Z1	X2	Y2	Z2	X3	Y3	Z3	X4	Y4	Z4	X5	Y5	Z5	X6	Y6	Z6	X7	Y7	Z7	X8	Y8	Z8	X9	Y9	Z9	X10	Y10	Z10	X11	Y11	Z11	X12	Y12	Z12	X13	Y13	Z13	X14	Y14	Z14	X15	Y15	Z15	X16	Y16	Z16	X17	Y17	Z17	X18	Y18	Z18	X19	Y19	Z19	X20	Y20	Z20	X21	Y21	Z21
9	0.33333333333333187	0.5360043028751078	-0.00905022658730481	-0.14294024205059863	0.5182127428235539	-0.014344609480730686	-0.12939661252562484	0.4905221136677156	-0.023401292076672187	-0.11844099491134946	0.47750390434684975	-0.027009629360162934	-0.07592751318935098	0.5663332051973782	0.0027149914713695544	-0.14458375867414547	0.5507372567230187	0.010994420979369646	-0.14055667061859234	0.5285547049827458	0.020210999957703812	-0.13314054607633674	0.48964015087122836	0.024562541611587774	-0.11639666189325965	0.580064928609068	0.0032732063137853595	-0.13484996947259315	0.5658222464848469	0.012109044953330761	-0.127988922799941	0.5423544182295482	0.025112292577604722	-0.11660533205705043	0.5025574977228794	0.031488262109939935	-0.09732580790035472	0.5786609542440246	-0.007870502813363323	-0.1136335984353431	0.5700324282499923	0.005872103560304431	-0.10577934422321467	0.554827247633321	0.02267808911078195	-0.09545745916807347	0.5178193740076876	0.027477293928856228	-0.07989771120021338	0.5704110826004944	-0.01722386635757489	-0.09648244344408563	0.5673271005450781	-0.004252732846987128	-0.08574751213865223	0.558711289619427	0.010540165166347037	-0.07359226679104502	0.5251443409512101	0.014706199376048334	-0.06107078257115722	0.4622830810018608	-0.023011742144276925	-0.051989820119430985
10	0.3666666666666651	0.5360299541225919	-0.008969194820311888	-0.14291535350473733	0.5182101725031997	-0.014286274734992888	-0.1294177965325271	0.490539296607288	-0.023383285787558328	-0.11844569477112527	0.4774862774967348	-0.026986932692895427	-0.07594248993806363	0.5662450409497569	0.002276559056086924	-0.1443623371776856	0.5507216117862986	0.01072224283194878	-0.14040082577858104	0.5285833232070563	0.020100550030247133	-0.13305553028578204	0.48964829503184104	0.024567224889988082	-0.11638974225483206	0.5798424995411164	0.002660104345306835	-0.13470326598477778	0.5656877194861517	0.011667897467822486	-0.1278840384143316	0.5423321015500141	0.024919090410419398	-0.11655573110832862	0.5025460850783259	0.031499488291523825	-0.0973224480281859	0.5785392841817375	-0.00802265778455069	-0.11360553416117702	0.5699693987637177	0.00576229869774858	-0.10576129814336577	0.5548023204788404	0.022610721675958678	-0.09545254659685276	0.5178026112898257	0.027494608837369428	-0.07989973334255862	0.5703873174485509	-0.01724085351688809	-0.0964957190852439	0.5673200381457151	-0.004275320814300265	-0.08574924248049026	0.5587097689867491	0.010525229402571945	-0.0735993866258719	0.5251422063624477	0.014706426636162617	-0.06108460416042627	0.462283081001861	-0.023011742144276925	-0.05198982011943104
11	0.39999999999999825	0.5360960259995018	-0.008867239606612398	-0.1428587886403157	0.5182607576595111	-0.014228344578650742	-0.12939915429463922	0.49059273312090135	-0.023348705072646747	-0.1184392527170498	0.4774803659625316	-0.026942848850327383	-0.0759535144274841	0.5661998020056107	0.0020809369372097875	-0.14428057933815863	0.5507212272619405	0.010617203564018074	-0.14033775345046662	0.5286126832114125	0.02008880844190386	-0.13302264483862242	0.4896711951429925	0.024572081053901185	-0.11637641800778725	0.5796621647201116	0.0021947684919162436	-0.13460782831321472	0.5655802441714062	0.01133781148591706	-0.12781781517112106	0.5423206263057475	0.024788308156683203	-0.11652693982625767	0.5025473834182186	0.0315051955275466	-0.09731443100370224	0.578422190394467	-0.008147341891349025	-0.1135951768488121	0.5699113718265261	0.005677981235213458	-0.10575767675313569	0.5547766444611572	0.022560066012782265	-0.0954564525472979	0.5177877336468687	0.02751123716696746	-0.07989922866337246	0.5703620638116237	-0.017260797604907507	-0.09652276326611825	0.5673163012160133	-0.004290539073249944	-0.08577586958314432	0.558705943457336	0.010510162278838275	-0.07362626062837213	0.5251393722404767	0.014704259243388806	-0.061113135583226064	0.4622830810018609	-0.023011742144276925	-0.051989820119430985
12	0.43333333333333146	0.5361058659996366	-0.00878247696768486	-0.14284621913499518	0.5182573019470244	-0.014180281590082888	-0.1294189161102542	0.4906060390220033	-0.023338594506406296	-0.11844836629823186	0.4774438435087419	-0.026933759933691515	-0.07597812501305495	0.5661422956263686	0.0020482218530631924	-0.14432157157616748	0.5506898627274353	0.010628431183605125	-0.14037159368407154	0.5286011680483983	0.020141419823215045	-0.13305022444608483	0.48966374339407914	0.024571249732700196	-0.11638020158280571	0.5794965652237489	0.001870541742020282	-0.1345669890048493	0.5654724644703093	0.011115133772134245	-0.1277948315750398	0.5422973825735024	0.02473266781973016	-0.1165303788347215	0.5025341692317759	0.03151131879097657	-0.09731880220107769	0.5783325945329014	-0.008220207256038004	-0.11361489043324285	0.569872396602897	0.005635589241788086	-0.10577639858876281	0.5547678531432816	0.022547361339454897	-0.09547956847492817	0.5177847307842083	0.02750774394422273	-0.07991152110256505	0.570358783313383	-0.01726344074620656	-0.09655100443935782	0.5673067826766665	-0.0042992329740300095	-0.08579858104026677	0.5587052873831749	0.010503917565374832	-0.0736456788426943	0.5251383225552441	0.014700822042928885	-0.06113455115384303	0.4622830810018609	-0.023011742144276925	-0.051989820119430985
13	0.4666666666666647	0.536125046294542	-0.008688501300742835	-0.14280403977029632	0.5182616110914704	-0.014124136244593077	-0.12941181980858507	0.49061114264637185	-0.023298556091632117	-0.11845273156015546	0.47743339568856924	-0.026909604501361928	-0.07598866069431975	0.5661050165077725	0.002175801147769496	-0.1444205490711889	0.550661820464677	0.010765239572361196	-0.14045453803682817	0.5285779923393886	0.020265467533547077	-0.13310198494159486	0.48965600337456383	0.024591248077469707	-0.1163687099570655	0.5793745714420215	0.001676857756550354	-0.13454748035327535	0.5653962543948684	0.010996233990927085	-0.1277831711401035	0.5422806666337155	0.024724160127137407	-0.11653047384322407	0.5025248086136613	0.03152444512026964	-0.09731132198624881	0.5782268473469534	-0.00827492994958412	-0.11361724213890811	0.5698177185949316	0.0056132446356086385	-0.10578109765816207	0.5547418350101608	0.022552753878632203	-0.09548786008468896	0.5177666970119142	0.027530398567489622	-0.07990636280868513	0.5703511085773859	-0.017256901102958522	-0.09659185572754442	0.5672958466639839	-0.0043042735176174185	-0.08582641039184297	0.5586959999974506	0.010487170120801914	-0.07365809697528525	0.525131123846496	0.01470911961365573	-0.061149792435865324	0.4622830810018608	-0.023011742144276925	-0.051989820119430985
